<svg xmlns="http://www.w3.org/2000/svg" viewBox="0 0 256 256"><defs><style>.a{fill:#292e38;}.b{fill:#fff;}</style></defs><title>icon1x</title><circle class="a" cx="128" cy="128" r="97"/><path class="b" d="M145.8,88.8l18.8,10.3c.9.5.9,1.3,0,1.9l-41.2,22.6h0c-4.2,2.3-5.6,5.6-4.1,8.5.1.2-.1.5-.5.7a2.22,2.22,0,0,1-1.6-.1L91.5,118.6c-.9-.5-.9-1.3,0-1.9l51-27.9A3.82,3.82,0,0,1,145.8,88.8Z"/><path class="b" d="M110.2,167.2,91.4,156.9c-.9-.5-.9-1.3,0-1.9l41.2-22.6h0c4.2-2.3,5.6-5.6,4.1-8.6-.1-.2.1-.5.5-.7a2.22,2.22,0,0,1,1.6.1l25.7,14.1c.9.5.9,1.3,0,1.9l-51,27.9A3.5,3.5,0,0,1,110.2,167.2Z"/></svg>